<?xml version="1.0" encoding="UTF-8" standalone="no"?>
<svg width="332px" height="219px" viewBox="0 0 332 219" version="1.1" xmlns="http://www.w3.org/2000/svg" xmlns:xlink="http://www.w3.org/1999/xlink">
    <!-- Generator: Sketch 3.6.1 (26313) - http://www.bohemiancoding.com/sketch -->
    <title>Wave Stamp</title>
    <desc>Created with Sketch.</desc>
    <defs>
        <linearGradient x1="79.3884473%" y1="100%" x2="-49.9913483%" y2="-31.0692271%" id="linearGradient-1">
            <stop stop-color="#3023AE" offset="0%"></stop>
            <stop stop-color="#FF0027" offset="100%"></stop>
        </linearGradient>
    </defs>
    <g id="Page-1" stroke="none" stroke-width="1" fill="none" fill-rule="evenodd">
        <g id="Homepage" transform="translate(-554.000000, -3652.000000)" stroke="url(#linearGradient-1)" stroke-width="2.21616">
            <g id="04-Section-#Available-moving-options" transform="translate(192.000000, 3187.000000)">
                <g id="Wave-Stamp" transform="translate(364.000000, 467.000000)">
                    <path d="M272.334267,64.6776512 L272.334267,167.904419 C272.334267,171.748527 273.077921,175.445594 274.414694,178.839572 C275.80566,182.36859 277.846947,185.552508 280.378987,188.220277 C282.950167,190.93306 286.01812,193.11769 289.414244,194.60912 C292.741122,196.06754 296.378106,196.874773 300.165628,196.874773 L300.168639,196.874773 C303.959171,196.874773 307.593145,196.06754 310.923033,194.60912 L310.917012,194.597116 C314.334211,193.099685 317.402164,190.915055 319.95829,188.220277 L321.734632,186.350738 L321.734632,186.14968 C323.450759,183.953047 324.871832,181.489336 325.922583,178.83057 C327.259356,175.436591 328,171.745527 328,167.904419 L328,97.9452447 L328,91.4843815 L321.517858,91.4843815 L314.090341,91.4843815 L307.608199,91.4843815 L307.608199,97.9452447 L307.608199,167.904419 C307.608199,169.080758 307.394436,170.179075 307.00906,171.160358 C306.656802,172.054616 306.157018,172.870851 305.551857,173.573054 L305.289922,173.852134 C304.603472,174.572342 303.781537,175.160511 302.86627,175.562627 C302.044335,175.91973 301.135089,176.120788 300.168639,176.120788 L300.165628,176.120788 C299.202188,176.120788 298.289931,175.922731 297.467997,175.562627 C296.552729,175.160511 295.730795,174.572342 295.047355,173.852134 C294.321765,173.083913 293.728647,172.168649 293.331228,171.154356 C292.942842,170.170072 292.729079,169.074756 292.729079,167.904419 L292.729079,64.6776512 L292.729079,50.0034196 L292.729079,28.9643525 C292.729079,25.1262457 291.988434,21.4351813 290.648651,18.0442034 C289.260696,14.5271892 287.22543,11.3552745 284.711455,8.69350696 L284.711455,8.6905061 L284.699412,8.67550177 L284.672315,8.65149485 C282.098125,5.93871256 279.033182,3.75108171 275.640069,2.26265249 C272.313191,0.804231918 268.682228,0 264.897717,0 L264.894706,0 C261.110195,0 257.479232,0.804231918 254.155366,2.26265249 C251.677519,3.34896575 249.368275,4.82239064 247.290859,6.60490467 L247.043977,6.60490467 L245.105055,8.65149485 C242.576026,11.3192642 240.534738,14.5061832 239.140762,18.0352008 C237.803989,21.4261787 237.063345,25.1232448 237.063345,28.9643525 L237.063345,52.22406 L237.063345,97.4561036 L237.063345,132.212126 C237.063345,133.388466 236.849582,134.486782 236.464206,135.468065 C236.114959,136.35332 235.624207,137.163554 235.025068,137.862756 L234.745069,138.159841 C234.061629,138.880049 233.236683,139.465218 232.321416,139.867334 C231.499481,140.227438 230.590235,140.425495 229.623785,140.425495 C228.657335,140.425495 227.745078,140.227438 226.926154,139.867334 C226.010886,139.465218 225.185941,138.880049 224.505512,138.159841 C223.776911,137.39162 223.186804,136.473355 222.786375,135.459063 C222.400999,134.47778 222.184225,133.382464 222.184225,132.212126 L222.184225,97.9452447 L222.184225,90.626134 L222.184225,75.9308964 C222.184225,72.0927895 221.446591,68.4017251 220.106808,65.0107473 C218.715842,61.4847305 216.674555,58.3008123 214.142515,55.6300422 L214.016063,55.4829997 L214.00402,55.4679954 L213.979934,55.4860006 C211.423809,52.8212322 208.407039,50.6816152 205.095215,49.2291963 C201.768338,47.7707758 198.137375,46.963543 194.352863,46.963543 C190.565342,46.963543 186.934379,47.7707758 183.610512,49.2291963 C181.114601,50.3245122 178.799335,51.7949362 176.72493,53.5714485 L176.52622,53.5714485 L175.050953,55.1288976 C174.891384,55.2909444 174.731814,55.4529911 174.575255,55.6180387 L174.581276,55.6240404 C172.025151,58.3188175 169.977842,61.5027357 168.598919,64.9987438 C167.259136,68.3927226 166.521502,72.0897887 166.521502,75.9308964 L166.521502,87.7272981 L156.998504,87.7272981 L162.225164,97.2670491 L166.635911,105.318371 L171.043647,113.366692 L176.718908,123.725679 L182.388148,113.366692 L186.798895,105.318371 L191.206631,97.2670491 L196.433291,87.7272981 L186.913303,87.7272981 L186.913303,75.9308964 C186.913303,74.7635597 187.127066,73.6682439 187.515453,72.6869609 C187.915883,71.6696675 188.502979,70.7514027 189.23158,69.9861821 L189.659106,69.5330514 C190.240181,69.0199034 190.902545,68.5907797 191.622114,68.2756888 C192.444049,67.915585 193.365338,67.7175278 194.352863,67.7175278 C195.331357,67.7175278 196.243614,67.9125841 197.059527,68.2666862 L197.056516,68.2756888 C197.99888,68.6868074 198.823825,69.2659744 199.492212,69.965176 L199.480169,69.9771795 C200.202748,70.7424001 200.789844,71.6576641 201.190274,72.6779583 C201.57866,73.6592413 201.792424,74.757558 201.792424,75.9308964 L201.792424,90.626134 L201.792424,97.9452447 L201.792424,132.212126 C201.792424,136.056235 202.533068,139.753301 203.86984,143.144279 C205.263817,146.676297 207.305105,149.860216 209.834133,152.527985 C212.405313,155.240767 215.473266,157.425397 218.86939,158.913826 C222.199279,160.372247 225.833252,161.17948 229.623785,161.17948 C233.411307,161.17948 237.048291,160.372247 240.378179,158.913826 L240.372158,158.904824 C243.75925,157.416394 246.824192,155.231765 249.38935,152.527985 L249.410426,152.506979 L249.416447,152.50998 L249.849995,152.041845 L251.189778,150.631438 L251.189778,150.454387 C252.908916,148.260754 254.326978,145.794043 255.37773,143.132275 C256.714502,139.744298 257.455146,136.050233 257.455146,132.212126 L257.455146,97.4561036 L257.455146,52.22406 L257.455146,28.9643525 C257.455146,27.7970159 257.67192,26.7017 258.057296,25.7204171 C258.457726,24.7031237 259.047832,23.7878598 259.773423,23.0196382 L260.197938,22.5755101 C260.776002,22.0623622 261.447399,21.6332384 262.191054,21.309145 L262.188043,21.3001424 C263.003956,20.9490411 263.916213,20.7539849 264.894706,20.7539849 L264.897717,20.7539849 C265.882232,20.7539849 266.803521,20.9490411 267.625456,21.309145 C268.537712,21.7112609 269.359647,22.2904279 270.037065,23.001633 L270.022012,23.0136365 C270.747602,23.7758563 271.334698,24.6941211 271.735128,25.7114145 C272.120503,26.6926974 272.334267,27.7910142 272.334267,28.9643525 L272.334267,50.0034196 L272.334267,64.6776512 Z M55.6657335,150.322349 L55.6657335,164.99658 L55.6657335,186.035647 C55.6657335,187.205985 55.8825074,188.307303 56.2678832,189.288586 C56.6683128,190.302878 57.2554088,191.221143 57.9779885,191.986364 L57.9659455,191.998367 C58.6463747,192.709572 59.4652984,193.288739 60.3775552,193.687854 C61.1964789,194.047958 62.117768,194.246015 63.1052936,194.246015 C64.0867977,194.246015 64.9990546,194.050959 65.8149675,193.699858 L65.8119567,193.687854 C66.5526009,193.363761 67.2270086,192.934637 67.8050724,192.42449 L68.2265772,191.980362 C68.9551784,191.21214 69.5422744,190.296876 69.942704,189.279583 C70.3310906,188.2983 70.5448537,187.199983 70.5448537,186.035647 L70.5448537,162.77594 L70.5448537,117.543896 L70.5448537,82.7848728 C70.5448537,78.946766 71.2854979,75.2557016 72.6252811,71.8647238 C73.6760324,69.2029562 75.0940951,66.7392457 76.8132326,64.5456132 L76.8132326,64.3655612 L78.1530158,62.9581554 L78.5865636,62.4870195 L78.5925851,62.4930212 L78.6106496,62.4720152 C81.181829,59.7652346 84.2407497,57.5836055 87.6308528,56.0921754 L87.6248313,56.0861737 C90.9547194,54.6277531 94.5886932,53.8175195 98.3792258,53.8175195 C102.166748,53.8175195 105.803732,54.6277531 109.13061,56.0831728 C112.529745,57.5746029 115.597698,59.7592329 118.171888,62.4720152 C120.697906,65.1397845 122.739194,68.3237026 124.133171,71.8557212 C125.469943,75.246699 126.210587,78.9407643 126.210587,82.7848728 L126.210587,117.054755 L126.210587,124.370865 L126.210587,139.066103 C126.210587,140.239441 126.42435,141.337758 126.809726,142.319041 C127.210156,143.339335 127.800263,144.2576 128.522842,145.01982 L128.507788,145.031823 C129.176175,145.731025 130.004131,146.313193 130.946495,146.724311 L130.943484,146.733314 C131.759397,147.084415 132.671654,147.282472 133.650147,147.282472 L133.650147,147.282472 C134.634662,147.282472 135.558962,147.084415 136.380896,146.72131 C137.100465,146.40922 137.76283,145.980097 138.343905,145.463948 L138.771431,145.010817 C139.497021,144.245596 140.087128,143.330332 140.487558,142.313039 C140.872934,141.331756 141.089707,140.23644 141.089707,139.066103 L141.089707,127.272702 L131.566709,127.272702 L136.79638,117.72995 L141.207127,109.681629 L145.611852,101.630307 L151.287113,91.274321 L156.959364,101.630307 L161.3671,109.681629 L165.777847,117.72995 L171.001496,127.272702 L161.484519,127.272702 L161.484519,139.066103 C161.484519,142.910211 160.740864,146.607277 159.404092,149.998255 C158.025169,153.497264 155.974849,156.681182 153.421734,159.37596 L153.427756,159.37896 C153.271197,159.547009 153.114638,159.709056 152.952057,159.868101 L151.476791,161.425551 L151.27507,161.425551 C149.203675,163.205064 146.88841,164.675488 144.392499,165.770804 C141.068632,167.226223 137.437669,168.033456 133.650147,168.033456 L133.650147,168.033456 C129.865636,168.033456 126.234673,167.226223 122.907796,165.770804 C119.595972,164.318385 116.579202,162.175767 114.020066,159.510999 L114.002001,159.532005 L113.986947,159.517 L113.857485,159.366957 C111.331467,156.699188 109.287169,153.51527 107.896203,149.986252 C106.556419,146.598275 105.818786,142.90721 105.818786,139.066103 L105.818786,124.370865 L105.818786,117.054755 L105.818786,82.7848728 C105.818786,81.6175362 105.602012,80.5222204 105.216636,79.5409374 C104.813196,78.523644 104.2261,77.6053792 103.497499,76.8401586 C102.817069,76.1199509 101.992124,75.5317813 101.076857,75.1326662 C100.254922,74.7725623 99.3426654,74.5745052 98.3792258,74.5745052 C97.4127755,74.5745052 96.5005186,74.7725623 95.681595,75.1326662 C94.7663273,75.5317813 93.9413822,76.1199509 93.2579422,76.8401586 L92.9779426,77.1372442 C92.3788036,77.8364459 91.8880515,78.6436786 91.5388047,79.5319348 C91.1534289,80.5132178 90.9396657,81.6115345 90.9396657,82.7848728 L90.9396657,117.543896 L90.9396657,162.77594 L90.9396657,186.035647 C90.9396657,189.876755 90.1990215,193.57082 88.8622491,196.964799 C87.4682724,200.493817 85.4269848,203.680736 82.8979558,206.348505 L80.9590336,208.392094 L80.7121522,208.392094 C78.6347356,210.177609 76.3254913,211.648033 73.8476451,212.734347 C70.5237785,214.192767 66.8928155,215 63.1052936,215 C59.3207824,215 55.6898194,214.192767 52.3629421,212.734347 C48.9698283,211.245917 45.9018753,209.058287 43.3306959,206.348505 L43.3035991,206.321497 L43.2915561,206.309494 L43.2915561,206.306493 C40.7745702,203.644725 38.7423148,200.46981 37.3513489,196.952796 C36.0145764,193.561818 35.276943,189.870753 35.276943,186.035647 L35.276943,164.99658 L35.276943,150.322349 L35.276943,47.0925802 C35.276943,45.9252436 35.0601691,44.8269268 34.6717825,43.8456439 C34.2713529,42.8283505 33.6842569,41.9160874 32.9556557,41.144865 C32.2722157,40.4246573 31.4472706,39.8394886 30.5350137,39.4373726 C29.7130793,39.0772688 28.8008224,38.8762108 27.8373829,38.8762108 L27.8343721,38.8762108 C26.8679218,38.8762108 25.9556649,39.0802697 25.1367412,39.4373726 C24.2214736,39.8394886 23.3995392,40.4246573 22.7160992,41.144865 L22.4481426,41.4239455 C21.8429821,42.1291489 21.3462086,42.9453843 20.9969617,43.8396421 C20.6085751,44.8209251 20.3978227,45.9192418 20.3978227,47.0925802 L20.3978227,117.054755 L20.3978227,123.515618 L13.9096592,123.515618 L6.48515279,123.515618 L0,123.515618 L0,117.054755 L0,47.0925802 C0,43.2514725 0.743654939,39.5604081 2.08042738,36.1694303 C3.13117869,33.5106635 4.5522521,31.0439522 6.27138963,28.8473188 L6.27138963,28.6492616 L8.04472063,26.7797225 C10.5978356,24.0849454 13.6687993,21.9003154 17.0859991,20.3998828 L17.0829884,20.3908802 C20.4098657,18.9324596 24.0438394,18.1252268 27.8343721,18.1252268 L27.8373829,18.1252268 C31.6279155,18.1252268 35.2618892,18.9324596 38.5887666,20.3908802 C41.9879019,21.8793094 45.0528441,24.0669402 47.6270343,26.7797225 C50.1560633,29.4474918 52.1973509,32.6284091 53.5913276,36.1604277 C54.9281,39.5514055 55.6657335,43.2484717 55.6657335,47.0925802 L55.6657335,150.322349 Z" id="Fill-1"></path>
                </g>
            </g>
        </g>
    </g>
</svg>